<mxfile host="app.diagrams.net" modified="2023-07-03T14:28:57.079Z" agent="Mozilla/5.0 (Windows NT 10.0; Win64; x64) AppleWebKit/537.36 (KHTML, like Gecko) Chrome/114.0.0.0 Safari/537.36 Edg/114.0.1823.67" etag="pw8uJPYjvSTN1hEw17iy" version="21.5.2" type="github">
  <diagram name="第 1 页" id="61HSVzilRYh9v3FZqo0w">
    <mxGraphModel dx="1683" dy="930" grid="0" gridSize="10" guides="1" tooltips="1" connect="1" arrows="1" fold="1" page="1" pageScale="1" pageWidth="1169" pageHeight="827" math="0" shadow="0">
      <root>
        <mxCell id="0" />
        <mxCell id="1" parent="0" />
        <mxCell id="RQQAjUI5k8xgZHzXDdDN-5" value="" style="edgeStyle=orthogonalEdgeStyle;rounded=0;orthogonalLoop=1;jettySize=auto;html=1;" parent="1" source="RQQAjUI5k8xgZHzXDdDN-1" target="RQQAjUI5k8xgZHzXDdDN-2" edge="1">
          <mxGeometry relative="1" as="geometry" />
        </mxCell>
        <mxCell id="RQQAjUI5k8xgZHzXDdDN-1" value="饥饿 - 食物系统" style="rounded=0;whiteSpace=wrap;html=1;fillColor=#dae8fc;strokeColor=#6c8ebf;" parent="1" vertex="1">
          <mxGeometry x="240" y="240" width="120" height="60" as="geometry" />
        </mxCell>
        <mxCell id="RQQAjUI5k8xgZHzXDdDN-2" value="复制人死亡" style="rounded=0;whiteSpace=wrap;html=1;" parent="1" vertex="1">
          <mxGeometry x="50" y="240" width="120" height="60" as="geometry" />
        </mxCell>
        <mxCell id="RQQAjUI5k8xgZHzXDdDN-7" value="" style="edgeStyle=orthogonalEdgeStyle;rounded=0;orthogonalLoop=1;jettySize=auto;html=1;" parent="1" source="RQQAjUI5k8xgZHzXDdDN-6" target="RQQAjUI5k8xgZHzXDdDN-1" edge="1">
          <mxGeometry relative="1" as="geometry" />
        </mxCell>
        <mxCell id="RQQAjUI5k8xgZHzXDdDN-18" style="edgeStyle=orthogonalEdgeStyle;rounded=0;orthogonalLoop=1;jettySize=auto;html=1;entryX=0.5;entryY=0;entryDx=0;entryDy=0;exitX=0.5;exitY=0;exitDx=0;exitDy=0;" parent="1" source="RQQAjUI5k8xgZHzXDdDN-6" target="RQQAjUI5k8xgZHzXDdDN-12" edge="1">
          <mxGeometry relative="1" as="geometry" />
        </mxCell>
        <mxCell id="RQQAjUI5k8xgZHzXDdDN-6" value="建造设施&lt;br&gt;&lt;font color=&quot;#ff6666&quot;&gt;生产资源&lt;/font&gt;" style="rounded=0;whiteSpace=wrap;html=1;" parent="1" vertex="1">
          <mxGeometry x="430" y="180" width="120" height="60" as="geometry" />
        </mxCell>
        <mxCell id="RQQAjUI5k8xgZHzXDdDN-11" value="" style="edgeStyle=orthogonalEdgeStyle;rounded=0;orthogonalLoop=1;jettySize=auto;html=1;" parent="1" source="RQQAjUI5k8xgZHzXDdDN-10" target="RQQAjUI5k8xgZHzXDdDN-1" edge="1">
          <mxGeometry relative="1" as="geometry" />
        </mxCell>
        <mxCell id="RQQAjUI5k8xgZHzXDdDN-10" value="探索地图&lt;br&gt;&lt;font color=&quot;#ff6666&quot;&gt;寻找资源&lt;/font&gt;" style="rounded=0;whiteSpace=wrap;html=1;" parent="1" vertex="1">
          <mxGeometry x="430" y="300" width="120" height="60" as="geometry" />
        </mxCell>
        <mxCell id="RQQAjUI5k8xgZHzXDdDN-15" value="" style="edgeStyle=orthogonalEdgeStyle;rounded=0;orthogonalLoop=1;jettySize=auto;html=1;" parent="1" source="RQQAjUI5k8xgZHzXDdDN-12" target="RQQAjUI5k8xgZHzXDdDN-13" edge="1">
          <mxGeometry relative="1" as="geometry" />
        </mxCell>
        <mxCell id="RQQAjUI5k8xgZHzXDdDN-12" value="玩家规划任务" style="rounded=0;whiteSpace=wrap;html=1;" parent="1" vertex="1">
          <mxGeometry x="590" y="120" width="120" height="60" as="geometry" />
        </mxCell>
        <mxCell id="RQQAjUI5k8xgZHzXDdDN-16" value="" style="edgeStyle=orthogonalEdgeStyle;rounded=0;orthogonalLoop=1;jettySize=auto;html=1;" parent="1" source="RQQAjUI5k8xgZHzXDdDN-13" target="RQQAjUI5k8xgZHzXDdDN-14" edge="1">
          <mxGeometry relative="1" as="geometry" />
        </mxCell>
        <mxCell id="RQQAjUI5k8xgZHzXDdDN-19" style="edgeStyle=orthogonalEdgeStyle;rounded=0;orthogonalLoop=1;jettySize=auto;html=1;entryX=1;entryY=0.5;entryDx=0;entryDy=0;" parent="1" source="RQQAjUI5k8xgZHzXDdDN-13" target="RQQAjUI5k8xgZHzXDdDN-6" edge="1">
          <mxGeometry relative="1" as="geometry" />
        </mxCell>
        <mxCell id="RQQAjUI5k8xgZHzXDdDN-20" style="edgeStyle=orthogonalEdgeStyle;rounded=0;orthogonalLoop=1;jettySize=auto;html=1;entryX=1;entryY=0.5;entryDx=0;entryDy=0;" parent="1" source="RQQAjUI5k8xgZHzXDdDN-13" target="RQQAjUI5k8xgZHzXDdDN-10" edge="1">
          <mxGeometry relative="1" as="geometry" />
        </mxCell>
        <mxCell id="RQQAjUI5k8xgZHzXDdDN-13" value="复制人执行任务" style="rounded=0;whiteSpace=wrap;html=1;" parent="1" vertex="1">
          <mxGeometry x="590" y="240" width="120" height="60" as="geometry" />
        </mxCell>
        <mxCell id="RQQAjUI5k8xgZHzXDdDN-17" style="edgeStyle=orthogonalEdgeStyle;rounded=0;orthogonalLoop=1;jettySize=auto;html=1;exitX=0.5;exitY=1;exitDx=0;exitDy=0;entryX=0.5;entryY=1;entryDx=0;entryDy=0;" parent="1" source="RQQAjUI5k8xgZHzXDdDN-14" target="RQQAjUI5k8xgZHzXDdDN-10" edge="1">
          <mxGeometry relative="1" as="geometry" />
        </mxCell>
        <mxCell id="RQQAjUI5k8xgZHzXDdDN-14" value="资源供给" style="rounded=0;whiteSpace=wrap;html=1;" parent="1" vertex="1">
          <mxGeometry x="590" y="360" width="120" height="60" as="geometry" />
        </mxCell>
        <mxCell id="CZUvcT7OaiENWCIMiPTk-3" value="窒息-氧气系统" style="rounded=0;whiteSpace=wrap;html=1;fillColor=#dae8fc;strokeColor=#6c8ebf;" parent="1" vertex="1">
          <mxGeometry x="240" y="330" width="120" height="60" as="geometry" />
        </mxCell>
        <mxCell id="CZUvcT7OaiENWCIMiPTk-4" value="辐射离子打击&lt;br&gt;- 辐射系统" style="rounded=0;whiteSpace=wrap;html=1;" parent="1" vertex="1">
          <mxGeometry x="240" y="150" width="120" height="60" as="geometry" />
        </mxCell>
        <mxCell id="CZUvcT7OaiENWCIMiPTk-5" value="生物攻击 -&amp;nbsp;&lt;br&gt;动植物系统" style="rounded=0;whiteSpace=wrap;html=1;" parent="1" vertex="1">
          <mxGeometry x="240" y="70" width="120" height="60" as="geometry" />
        </mxCell>
        <mxCell id="CZUvcT7OaiENWCIMiPTk-6" value="烫伤-温度系统" style="rounded=0;whiteSpace=wrap;html=1;fillColor=#dae8fc;strokeColor=#6c8ebf;" parent="1" vertex="1">
          <mxGeometry x="240" y="420" width="120" height="60" as="geometry" />
        </mxCell>
        <mxCell id="jsDxv2tLhqo4XAbgUIIQ-3" value="无法执行任务" style="edgeStyle=orthogonalEdgeStyle;rounded=0;orthogonalLoop=1;jettySize=auto;html=1;entryX=1;entryY=0.5;entryDx=0;entryDy=0;" edge="1" parent="1" source="jsDxv2tLhqo4XAbgUIIQ-1" target="RQQAjUI5k8xgZHzXDdDN-13">
          <mxGeometry relative="1" as="geometry" />
        </mxCell>
        <mxCell id="jsDxv2tLhqo4XAbgUIIQ-24" value="" style="edgeStyle=orthogonalEdgeStyle;rounded=0;orthogonalLoop=1;jettySize=auto;html=1;" edge="1" parent="1" source="jsDxv2tLhqo4XAbgUIIQ-1" target="jsDxv2tLhqo4XAbgUIIQ-13">
          <mxGeometry relative="1" as="geometry" />
        </mxCell>
        <mxCell id="jsDxv2tLhqo4XAbgUIIQ-25" value="限时解决" style="edgeLabel;html=1;align=center;verticalAlign=middle;resizable=0;points=[];" vertex="1" connectable="0" parent="jsDxv2tLhqo4XAbgUIIQ-24">
          <mxGeometry x="-0.1" y="-3" relative="1" as="geometry">
            <mxPoint as="offset" />
          </mxGeometry>
        </mxCell>
        <mxCell id="jsDxv2tLhqo4XAbgUIIQ-1" value="复制人压力过高" style="rounded=0;whiteSpace=wrap;html=1;fillColor=#d5e8d4;strokeColor=#82b366;" vertex="1" parent="1">
          <mxGeometry x="838" y="240" width="120" height="60" as="geometry" />
        </mxCell>
        <mxCell id="jsDxv2tLhqo4XAbgUIIQ-23" style="edgeStyle=orthogonalEdgeStyle;rounded=0;orthogonalLoop=1;jettySize=auto;html=1;entryX=1;entryY=0.5;entryDx=0;entryDy=0;exitX=0.5;exitY=1;exitDx=0;exitDy=0;" edge="1" parent="1" source="jsDxv2tLhqo4XAbgUIIQ-4" target="jsDxv2tLhqo4XAbgUIIQ-13">
          <mxGeometry relative="1" as="geometry">
            <Array as="points">
              <mxPoint x="1060" y="390" />
            </Array>
          </mxGeometry>
        </mxCell>
        <mxCell id="jsDxv2tLhqo4XAbgUIIQ-28" style="edgeStyle=orthogonalEdgeStyle;rounded=0;orthogonalLoop=1;jettySize=auto;html=1;" edge="1" parent="1" source="jsDxv2tLhqo4XAbgUIIQ-4">
          <mxGeometry relative="1" as="geometry">
            <mxPoint x="960" y="270" as="targetPoint" />
          </mxGeometry>
        </mxCell>
        <mxCell id="jsDxv2tLhqo4XAbgUIIQ-32" value="" style="edgeStyle=orthogonalEdgeStyle;rounded=0;orthogonalLoop=1;jettySize=auto;html=1;" edge="1" parent="1" source="jsDxv2tLhqo4XAbgUIIQ-4" target="jsDxv2tLhqo4XAbgUIIQ-31">
          <mxGeometry relative="1" as="geometry" />
        </mxCell>
        <mxCell id="jsDxv2tLhqo4XAbgUIIQ-4" value="士气、属性" style="rounded=0;whiteSpace=wrap;html=1;" vertex="1" parent="1">
          <mxGeometry x="1000" y="240" width="120" height="60" as="geometry" />
        </mxCell>
        <mxCell id="jsDxv2tLhqo4XAbgUIIQ-30" value="" style="edgeStyle=orthogonalEdgeStyle;rounded=0;orthogonalLoop=1;jettySize=auto;html=1;" edge="1" parent="1" source="jsDxv2tLhqo4XAbgUIIQ-7" target="jsDxv2tLhqo4XAbgUIIQ-13">
          <mxGeometry relative="1" as="geometry" />
        </mxCell>
        <mxCell id="jsDxv2tLhqo4XAbgUIIQ-7" value="其它" style="rounded=0;whiteSpace=wrap;html=1;" vertex="1" parent="1">
          <mxGeometry x="1200" y="360" width="120" height="60" as="geometry" />
        </mxCell>
        <mxCell id="jsDxv2tLhqo4XAbgUIIQ-18" value="" style="edgeStyle=orthogonalEdgeStyle;rounded=0;orthogonalLoop=1;jettySize=auto;html=1;" edge="1" parent="1" source="jsDxv2tLhqo4XAbgUIIQ-10" target="jsDxv2tLhqo4XAbgUIIQ-17">
          <mxGeometry relative="1" as="geometry" />
        </mxCell>
        <mxCell id="jsDxv2tLhqo4XAbgUIIQ-34" style="edgeStyle=orthogonalEdgeStyle;rounded=0;orthogonalLoop=1;jettySize=auto;html=1;entryX=1;entryY=0.5;entryDx=0;entryDy=0;" edge="1" parent="1" source="jsDxv2tLhqo4XAbgUIIQ-10" target="jsDxv2tLhqo4XAbgUIIQ-1">
          <mxGeometry relative="1" as="geometry" />
        </mxCell>
        <mxCell id="jsDxv2tLhqo4XAbgUIIQ-10" value="吃喝拉撒" style="rounded=0;whiteSpace=wrap;html=1;fillColor=#dae8fc;strokeColor=#6c8ebf;" vertex="1" parent="1">
          <mxGeometry x="1000" y="170" width="120" height="60" as="geometry" />
        </mxCell>
        <mxCell id="jsDxv2tLhqo4XAbgUIIQ-16" value="" style="edgeStyle=orthogonalEdgeStyle;rounded=0;orthogonalLoop=1;jettySize=auto;html=1;" edge="1" parent="1" source="jsDxv2tLhqo4XAbgUIIQ-11" target="jsDxv2tLhqo4XAbgUIIQ-15">
          <mxGeometry relative="1" as="geometry" />
        </mxCell>
        <mxCell id="jsDxv2tLhqo4XAbgUIIQ-35" style="edgeStyle=orthogonalEdgeStyle;rounded=0;orthogonalLoop=1;jettySize=auto;html=1;entryX=1;entryY=0.5;entryDx=0;entryDy=0;" edge="1" parent="1" source="jsDxv2tLhqo4XAbgUIIQ-11" target="jsDxv2tLhqo4XAbgUIIQ-1">
          <mxGeometry relative="1" as="geometry" />
        </mxCell>
        <mxCell id="jsDxv2tLhqo4XAbgUIIQ-11" value="环境交互" style="rounded=0;whiteSpace=wrap;html=1;" vertex="1" parent="1">
          <mxGeometry x="1000" y="100" width="120" height="60" as="geometry" />
        </mxCell>
        <mxCell id="jsDxv2tLhqo4XAbgUIIQ-26" style="edgeStyle=orthogonalEdgeStyle;rounded=0;orthogonalLoop=1;jettySize=auto;html=1;entryX=1;entryY=0.5;entryDx=0;entryDy=0;" edge="1" parent="1" source="jsDxv2tLhqo4XAbgUIIQ-13" target="RQQAjUI5k8xgZHzXDdDN-14">
          <mxGeometry relative="1" as="geometry" />
        </mxCell>
        <mxCell id="jsDxv2tLhqo4XAbgUIIQ-27" value="影响资源产出" style="edgeLabel;html=1;align=center;verticalAlign=middle;resizable=0;points=[];" vertex="1" connectable="0" parent="jsDxv2tLhqo4XAbgUIIQ-26">
          <mxGeometry x="0.0781" y="-3" relative="1" as="geometry">
            <mxPoint as="offset" />
          </mxGeometry>
        </mxCell>
        <mxCell id="jsDxv2tLhqo4XAbgUIIQ-13" value="影响复制人的能力和建造速度" style="rounded=0;whiteSpace=wrap;html=1;fillColor=#d5e8d4;strokeColor=#82b366;" vertex="1" parent="1">
          <mxGeometry x="838" y="360" width="120" height="60" as="geometry" />
        </mxCell>
        <mxCell id="jsDxv2tLhqo4XAbgUIIQ-15" value="气体、液体、温度、植物、辐射、动物、噪声" style="rounded=0;whiteSpace=wrap;html=1;" vertex="1" parent="1">
          <mxGeometry x="1200" y="100" width="120" height="60" as="geometry" />
        </mxCell>
        <mxCell id="jsDxv2tLhqo4XAbgUIIQ-17" value="专用设施" style="rounded=0;whiteSpace=wrap;html=1;" vertex="1" parent="1">
          <mxGeometry x="1200" y="170" width="120" height="60" as="geometry" />
        </mxCell>
        <mxCell id="jsDxv2tLhqo4XAbgUIIQ-31" value="特质和技能系统" style="whiteSpace=wrap;html=1;rounded=0;" vertex="1" parent="1">
          <mxGeometry x="1200" y="240" width="120" height="60" as="geometry" />
        </mxCell>
      </root>
    </mxGraphModel>
  </diagram>
</mxfile>
